<svg width="320" height="160" viewBox="0 0 340 169" fill="none" xmlns="http://www.w3.org/2000/svg">
<path d="M265.5 125.707L165.1 117.307C163 117.107 161.5 115.307 161.7 113.207L168.4 45.9071C168.6 43.9071 170.299 42.4071 172.299 42.6071L272.7 48.7071C274.8 48.8071 276.4 50.7071 276.2 52.8071L269.5 122.407C269.3 124.407 267.5 125.907 265.5 125.707Z" stroke="#121212" stroke-width="2" stroke-miterlimit="10" stroke-linecap="round" stroke-linejoin="round"/>
<path d="M269.4 126.507V127.207C269.3 130.007 268.5 132.807 267.2 135.307L251.4 165.107C250.4 166.907 248.5 168.007 246.4 167.807L133.5 156.407C130.5 156.207 128.7 154.007 128.3 152.207" stroke="#121212" stroke-width="2" stroke-miterlimit="10" stroke-linecap="round" stroke-linejoin="round"/>
<path d="M245.8 164.207L129.2 153.007C128.2 152.907 127.8 151.707 128.5 151.107L161.3 117.007L269.1 126.007L248.9 162.607C248.3 163.607 247.1 164.307 245.8 164.207Z" fill="#F8F8F8" stroke="#121212" stroke-width="2" stroke-miterlimit="10" stroke-linecap="round" stroke-linejoin="round"/>
<path d="M171.8 48.7071L165.5 110.407C165.4 111.707 166.3 112.907 167.7 113.007L263.1 120.807C264.4 120.907 265.5 120.007 265.7 118.707L271.9 57.5071C272 56.2071 271 55.0071 269.7 54.9071L171.8 48.6071" fill="#C2E5FF"/>
<path d="M171.8 48.7071L165.5 110.407C165.4 111.707 166.3 112.907 167.7 113.007L263.1 120.807C264.4 120.907 265.5 120.007 265.7 118.707L271.9 57.5071C272 56.2071 271 55.0071 269.7 54.9071L171.8 48.6071" stroke="#121212" stroke-width="2" stroke-miterlimit="10" stroke-linecap="round" stroke-linejoin="round"/>
<path d="M190.6 55.8071L175.5 55.0071L174.4 64.6071L189.9 66.0071L190.6 55.8071Z" fill="#FFE79D" stroke="#121212" stroke-miterlimit="10" stroke-linecap="round" stroke-linejoin="round"/>
<path d="M175.5 55.7071L182.4 60.5071L190.6 55.8071" stroke="#121212" stroke-miterlimit="10" stroke-linecap="round" stroke-linejoin="round"/>
<path d="M189.901 66.0071L185.301 59.0071" stroke="#121212" stroke-miterlimit="10" stroke-linecap="round" stroke-linejoin="round"/>
<path d="M174.4 64.6071L179.3 59.1071" stroke="#121212" stroke-miterlimit="10" stroke-linecap="round" stroke-linejoin="round"/>
<path d="M189.2 69.3071L174.1 68.4071L173 78.1071L188.5 79.4071L189.2 69.3071Z" fill="#FFE79D" stroke="#121212" stroke-miterlimit="10" stroke-linecap="round" stroke-linejoin="round"/>
<path d="M174.1 69.1071L181 73.9071L189.2 69.3071" stroke="#121212" stroke-miterlimit="10" stroke-linecap="round" stroke-linejoin="round"/>
<path d="M188.5 79.4071L183.9 72.5071" stroke="#121212" stroke-miterlimit="10" stroke-linecap="round" stroke-linejoin="round"/>
<path d="M173 78.1071L177.9 72.6071" stroke="#121212" stroke-miterlimit="10" stroke-linecap="round" stroke-linejoin="round"/>
<path d="M187.7 83.4071L172.6 82.6071L171.6 92.2071L187.1 93.6071L187.7 83.4071Z" fill="#FFE79D" stroke="#121212" stroke-miterlimit="10" stroke-linecap="round" stroke-linejoin="round"/>
<path d="M172.6 83.3071L179.6 88.1071L187.7 83.4071" stroke="#121212" stroke-miterlimit="10" stroke-linecap="round" stroke-linejoin="round"/>
<path d="M187.1 93.6071L182.5 86.6071" stroke="#121212" stroke-miterlimit="10" stroke-linecap="round" stroke-linejoin="round"/>
<path d="M171.6 92.2071L176.5 86.7071" stroke="#121212" stroke-miterlimit="10" stroke-linecap="round" stroke-linejoin="round"/>
<path d="M186.3 96.9071L171.2 96.0071L170.2 105.707L185.7 107.007L186.3 96.9071Z" fill="#FFE79D" stroke="#121212" stroke-miterlimit="10" stroke-linecap="round" stroke-linejoin="round"/>
<path d="M171.2 96.7071L178.2 101.507L186.3 96.9071" stroke="#121212" stroke-miterlimit="10" stroke-linecap="round" stroke-linejoin="round"/>
<path d="M185.701 107.007L181.101 100.107" stroke="#121212" stroke-miterlimit="10" stroke-linecap="round" stroke-linejoin="round"/>
<path d="M170.2 105.707L175.1 100.207" stroke="#121212" stroke-miterlimit="10" stroke-linecap="round" stroke-linejoin="round"/>
<path d="M198 61.1071C198.2 61.9071 194.2 99.2071 194.2 99.2071L256.5 104.307L260.5 65.7071L198 61.1071Z" fill="white" stroke="#121212" stroke-width="2" stroke-miterlimit="10" stroke-linecap="round" stroke-linejoin="round"/>
<path d="M226 87.2071C226 87.2071 225.7 87.5071 224.9 87.5071C223.9 87.4071 223.8 87.1071 223.8 87.1071" stroke="#121212" stroke-miterlimit="10" stroke-linecap="round" stroke-linejoin="round"/>
<path d="M233.799 79.1071C232.199 85.2071 229.499 91.1071 224.899 90.7071C220.099 90.3071 218.799 85.4071 218.099 78.6071C217.499 72.5071 221.799 67.3071 226.699 67.7071C231.599 68.2071 235.299 73.2071 233.799 79.1071Z" stroke="#121212" stroke-miterlimit="10" stroke-linecap="round" stroke-linejoin="round"/>
<path d="M226.5 93.0071L226.7 90.7071" stroke="#121212" stroke-miterlimit="10" stroke-linecap="round" stroke-linejoin="round"/>
<path d="M222.7 90.5071L222.6 92.7071" stroke="#121212" stroke-miterlimit="10" stroke-linecap="round" stroke-linejoin="round"/>
<path d="M211.6 99.5071C212.9 97.4071 213.4 93.7071 215.8 93.4071C217.2 93.2071 219 93.0071 220.4 92.7071C221.5 92.5071 222.1 92.1071 222.1 92.1071C222.1 92.1071 222.9 94.2071 224.5 94.3071C225.9 94.4071 227 92.4071 227 92.4071C227 92.4071 227.7 93.1071 228.9 93.5071C230.2 93.9071 231.8 94.5071 233 94.8071C235.3 95.5071 236.5 99.9071 237.4 102.207" stroke="#121212" stroke-miterlimit="10" stroke-linecap="round" stroke-linejoin="round"/>
<path d="M228.6 90.4071C229.4 91.6071 230.3 90.4071 231.6 90.3071C233.6 90.2071 237.1 93.6071 237.7 91.7071C238.2 90.3071 238.2 84.9071 238 81.3071C237.8 77.0071 237.6 73.9071 234.9 70.6071C232.7 68.0071 224 64.9071 225.3 70.0071C226.1 73.2071 231.6 74.8071 233.3 76.5071C233.3 76.5071 232.7 81.9071 232.2 84.2071C231.4 87.4071 228.9 90.5071 228.9 90.5071" fill="white"/>
<path d="M228.6 90.4071C229.4 91.6071 230.3 90.4071 231.6 90.3071C233.6 90.2071 237.1 93.6071 237.7 91.7071C238.2 90.3071 238.2 84.9071 238 81.3071C237.8 77.0071 237.6 73.9071 234.9 70.6071C232.7 68.0071 224 64.9071 225.3 70.0071C226.1 73.2071 231.6 74.8071 233.3 76.5071C233.3 76.5071 232.7 81.9071 232.2 84.2071C231.4 87.4071 228.9 90.5071 228.9 90.5071" stroke="#121212" stroke-miterlimit="10" stroke-linecap="round" stroke-linejoin="round"/>
<path d="M220.7 89.2071C219.2 86.0071 218.2 82.7071 219.4 77.3071C220 74.4071 222 72.3071 223.9 70.0071C224.9 68.8071 225.6 67.2071 223.8 67.6071C219.1 68.8071 217.5 71.2071 215.2 75.9071C213 80.2071 212.5 84.2071 212.3 89.0071C214.3 89.7071 218.5 90.9071 220.4 89.8071" fill="white"/>
<path d="M220.7 89.2071C219.2 86.0071 218.2 82.7071 219.4 77.3071C220 74.4071 222 72.3071 223.9 70.0071C224.9 68.8071 225.6 67.2071 223.8 67.6071C219.1 68.8071 217.5 71.2071 215.2 75.9071C213 80.2071 212.5 84.2071 212.3 89.0071C214.3 89.7071 218.5 90.9071 220.4 89.8071" stroke="#121212" stroke-miterlimit="10" stroke-linecap="round" stroke-linejoin="round"/>
<path d="M230.2 107.007L255.9 109.307" stroke="#121212" stroke-width="2" stroke-miterlimit="10" stroke-linecap="round" stroke-linejoin="round"/>
<path d="M229.5 111.307L255.2 113.507" stroke="#121212" stroke-width="2" stroke-miterlimit="10" stroke-linecap="round" stroke-linejoin="round"/>
<path d="M182.6 144.907L177.7 150.007C176.9 150.807 177.4 152.107 178.5 152.207L200.8 154.207C201.3 154.207 201.8 154.007 202.1 153.507L204.8 148.407C205.2 147.607 204.7 146.607 203.8 146.507L183.6 144.507C183.3 144.407 182.9 144.607 182.6 144.907Z" fill="white" stroke="#121212" stroke-width="2" stroke-miterlimit="10" stroke-linecap="round" stroke-linejoin="round"/>
<path opacity="0.32" d="M283.8 41.8071C286.2 37.4071 290.6 34.1071 295.5 33.1071C300.4 32.1071 305.7 33.4071 309.7 36.6071" stroke="#121212" stroke-width="2" stroke-miterlimit="10" stroke-linecap="round" stroke-linejoin="round"/>
<path opacity="0.32" d="M276.3 37.5071C280 30.4071 287.2 25.2071 295.2 24.0071C303.1 22.8071 311.6 25.7071 317.2 31.4071" stroke="#121212" stroke-width="2" stroke-miterlimit="10" stroke-linecap="round" stroke-linejoin="round"/>
<path d="M115.302 0.999998L63.9102 20.869L77.7211 56.5914L129.113 36.7224L115.302 0.999998Z" fill="#FFE79D" stroke="#121212" stroke-width="2" stroke-miterlimit="10" stroke-linecap="round" stroke-linejoin="round"/>
<path d="M64.7002 22.7071L98.3002 33.4071L113.6 2.00705" fill="#FFE79D"/>
<path d="M64.7002 22.7071L98.3002 33.4071L113.6 2.00705" stroke="#121212" stroke-width="2" stroke-miterlimit="10" stroke-linecap="round" stroke-linejoin="round"/>
<path d="M78.2002 55.507L86.9003 29.6071" stroke="#121212" stroke-width="2" stroke-miterlimit="10" stroke-linecap="round" stroke-linejoin="round"/>
<path d="M127.7 37.007L103.7 22.4071" stroke="#121212" stroke-width="2" stroke-miterlimit="10" stroke-linecap="round" stroke-linejoin="round"/>
<path d="M74.7002 20.1071L95.8002 27.4071" stroke="#121212" stroke-width="2" stroke-miterlimit="10" stroke-linecap="round" stroke-linejoin="round"/>
<path d="M83.7002 19.2071L93.5002 21.507" stroke="#121212" stroke-width="2" stroke-miterlimit="10" stroke-linecap="round" stroke-linejoin="round"/>
<path d="M39.6 163.207C60.9182 163.207 78.2 145.925 78.2 124.607C78.2 103.289 60.9182 86.0071 39.6 86.0071C18.2818 86.0071 1 103.289 1 124.607C1 145.925 18.2818 163.207 39.6 163.207Z" fill="#C2E5FF" stroke="#121212" stroke-width="2" stroke-miterlimit="10" stroke-linecap="round" stroke-linejoin="round"/>
<path d="M28 161L15 154L26 148.5L44 148L65 153L55 160L40 163L28 161Z" fill="#6DC1FF"/>
<rect x="37" y="140" width="5" height="6" fill="white"/>
<path d="M53.1007 119.407C51.3007 129.707 47.6006 139.807 39.8006 139.807C31.7006 139.807 29.0007 131.707 27.0007 120.607C25.2007 110.507 31.6006 101.407 39.8006 101.407C48.1006 101.507 54.8007 109.407 53.1007 119.407Z" fill="white" stroke="#121212" stroke-width="2" stroke-miterlimit="10" stroke-linecap="round" stroke-linejoin="round"/>
<path d="M43.0002 132.707C43.0002 132.707 41.6002 134.207 39.5002 134.207C36.8002 134.107 36.2002 132.507 36.2002 132.507" stroke="#121212" stroke-width="2" stroke-miterlimit="10" stroke-linecap="round" stroke-linejoin="round"/>
<path d="M53.0004 120.507C53.0004 120.507 55.6003 120.907 54.8003 123.707C54.2003 125.807 51.9004 125.207 51.9004 125.207" stroke="#121212" stroke-width="2" stroke-miterlimit="10" stroke-linecap="round" stroke-linejoin="round"/>
<path d="M26.3005 119.907C26.3005 119.907 23.7005 120.307 24.5005 123.107C25.1005 125.207 27.4006 124.607 27.4006 124.607" stroke="#121212" stroke-width="2" stroke-miterlimit="10" stroke-linecap="round" stroke-linejoin="round"/>
<path d="M26.3 119.507C26.6 119.907 27.6001 118.407 27.9001 118.107C29.0001 116.907 28.9001 112.407 29.9001 112.107C31.0001 111.807 31.5 112.307 34.8 112.907C38.1 113.507 41.6001 112.807 42.9001 112.307C45.7001 111.207 46.5 109.507 47.8 109.607C49.1 109.707 49.0001 109.107 50.4001 111.507C51.8001 113.907 53.3001 114.707 53.4001 116.107C53.5001 117.607 53.2 119.707 53.2 119.707H54.7C54.7 119.707 57.2001 115.007 54.9001 109.707C54.2001 108.107 51.3001 105.507 48.6001 104.607C45.7001 103.607 42.8001 98.0071 38.0001 99.9071C35.2001 101.007 34.2 101.907 32.2 101.807C30.6 101.707 26.1001 103.107 25.6001 105.807C25.3001 107.107 25.2 110.707 24.7 111.607C22.9 114.707 25.2 118.107 26.3 119.507Z" fill="#FFE79D" stroke="#121212" stroke-width="2" stroke-miterlimit="10" stroke-linecap="round" stroke-linejoin="round"/>
<path d="M42.7998 143.507V139.507" stroke="#121212" stroke-width="2" stroke-miterlimit="10" stroke-linecap="round" stroke-linejoin="round"/>
<path d="M36.2998 139.707V143.407" stroke="#121212" stroke-width="2" stroke-miterlimit="10" stroke-linecap="round" stroke-linejoin="round"/>
<path d="M14.9004 154.307C16.7004 150.607 21.3003 146.307 25.2003 145.507C27.4003 145.107 30.4003 144.307 32.7003 143.807C34.4003 143.407 35.5004 142.507 35.5004 142.507C35.5004 142.507 37.1003 145.807 39.7003 145.807C42.1003 145.807 43.5004 142.407 43.5004 142.407C43.5004 142.407 44.8003 143.407 46.8003 143.907C49.0003 144.407 51.7003 145.107 53.8003 145.507C57.8003 146.307 63.0003 149.707 64.8003 153.307" fill="#6DC1FF"/>
<path d="M14.9004 154.307C16.7004 150.607 21.3003 146.307 25.2003 145.507C27.4003 145.107 30.4003 144.307 32.7003 143.807C34.4003 143.407 35.5004 142.507 35.5004 142.507C35.5004 142.507 37.1003 145.807 39.7003 145.807C42.1003 145.807 43.5004 142.407 43.5004 142.407C43.5004 142.407 44.8003 143.407 46.8003 143.907C49.0003 144.407 51.7003 145.107 53.8003 145.507C57.8003 146.307 63.0003 149.707 64.8003 153.307C64.8003 153.307 57.5172 162.325 39.7003 163C26.502 163.5 14.9004 154.307 14.9004 154.307Z" stroke="#121212" stroke-width="2" stroke-miterlimit="10" stroke-linecap="round" stroke-linejoin="round"/>
<path d="M89.2997 90.2071C89.0997 96.2071 90.1998 99.8071 95.3998 102.607C96.4998 103.207 67.5998 127.407 67.8998 127.707L103.6 106.507L125.5 108.507C134.5 108.907 143.3 100.907 143.6 92.3071L143.8 87.7071C144.1 79.2071 135.9 74.0071 126.8 73.7071L106.3 72.9071C97.2997 72.5071 89.6998 77.0071 89.3998 85.6071L89.2997 90.2071Z" fill="#C0E8D3" stroke="#121212" stroke-width="2" stroke-miterlimit="10" stroke-linecap="round" stroke-linejoin="round"/>
<path d="M105.8 88.8071L110.2 97.2071L130.1 82.4071" stroke="#121212" stroke-width="2" stroke-miterlimit="10" stroke-linecap="round" stroke-linejoin="round"/>
<path opacity="0.32" d="M115.9 113.407C125.6 113.407 136 115.807 144.4 106.407" stroke="#121212" stroke-width="2" stroke-miterlimit="10" stroke-linecap="round" stroke-linejoin="round"/>
<path opacity="0.32" d="M124.7 121.807C131.4 122.807 139.9 119.707 144.4 114.707" stroke="#121212" stroke-width="2" stroke-miterlimit="10" stroke-linecap="round" stroke-linejoin="round"/>
<path d="M60.4005 35.2071C52.4005 37.8071 28.7005 48.5071 35.9005 79.3071" stroke="#121212" stroke-width="2" stroke-miterlimit="10" stroke-linecap="round" stroke-linejoin="round"/>
<path d="M126.9 14.1071C133.8 12.2071 147.4 16.9071 150.8 23.2071C154.2 29.5071 153.3 36.9071 149.2 43.7071C148.3 45.2071 146.9 46.6071 145.2 46.7071C143.3 46.9071 141.7 45.3071 141 43.6071C134.8 29.6071 144.1 21.4071 151.2 14.4071C170.6 -4.5929 204.8 -9.29291 242.4 41.7071" stroke="#121212" stroke-width="2" stroke-miterlimit="10" stroke-linecap="round" stroke-linejoin="round"/>
<path d="M291.2 139.607L250.2 110.007C249.6 109.507 249.4 108.707 249.9 108.007L294.6 46.0071C295.1 45.4071 295.9 45.2071 296.6 45.7071L337.6 75.3071C338.2 75.8071 338.4 76.6071 337.9 77.3071L293.2 139.307C292.7 139.907 291.8 140.007 291.2 139.607Z" fill="#FFB5CE" stroke="#121212" stroke-width="2" stroke-miterlimit="10" stroke-linecap="round" stroke-linejoin="round"/>
<path d="M291.3 131.807L257.1 107.107C256.1 106.407 255.9 105.107 256.6 104.107L293 53.6071C293.7 52.6071 295 52.4071 296 53.1071L330.2 77.8071C331.2 78.5071 331.4 79.8071 330.7 80.8071L294.3 131.307C293.6 132.307 292.2 132.507 291.3 131.807Z" fill="white" stroke="#121212" stroke-width="2" stroke-miterlimit="10" stroke-linecap="round" stroke-linejoin="round"/>
<path d="M312.2 60.7071L319.1 65.5071" stroke="#121212" stroke-width="2" stroke-miterlimit="10" stroke-linecap="round" stroke-linejoin="round"/>
</svg>
